<svg width="24" height="23" viewBox="0 0 24 23" fill="none" xmlns="http://www.w3.org/2000/svg">
<path d="M12 0.888672C5.86114 0.888672 0.888918 5.86089 0.888918 11.9998C0.887658 14.3323 1.62093 16.606 2.98471 18.4983C4.34849 20.3906 6.27351 21.8054 8.48671 22.542C9.04221 22.6387 9.25001 22.3053 9.25001 22.0131C9.25001 21.7498 9.23561 20.8753 9.23561 19.9442C6.44451 20.4587 5.72225 19.2642 5.50003 18.6387C5.37447 18.3187 4.83336 17.3331 4.36114 17.0687C3.97225 16.8609 3.4167 16.3464 4.3467 16.3331C5.22225 16.3187 5.8467 17.1387 6.05561 17.472C7.05561 19.152 8.65341 18.6798 9.29111 18.3887C9.38891 17.6665 9.68001 17.1809 10 16.9031C7.52781 16.6253 4.94447 15.6665 4.94447 11.4165C4.94447 10.2076 5.37447 9.2087 6.08341 8.4298C5.97225 8.152 5.58336 7.0131 6.19451 5.48534C6.19451 5.48534 7.12451 5.19423 9.25001 6.6253C10.1545 6.3743 11.0891 6.2479 12.0278 6.2498C12.9722 6.2498 13.9167 6.3742 14.8056 6.6242C16.93 5.17978 17.8611 5.48645 17.8611 5.48645C18.4722 7.0142 18.0834 8.1531 17.9722 8.4309C18.68 9.2087 19.1111 10.1942 19.1111 11.4165C19.1111 15.6809 16.5145 16.6253 14.0422 16.9031C14.4445 17.2498 14.7922 17.9165 14.7922 18.9587C14.7922 20.4442 14.7778 21.6387 14.7778 22.0142C14.7778 22.3053 14.9867 22.652 15.5422 22.5409C17.7478 21.7962 19.6644 20.3787 21.0221 18.4877C22.3799 16.5968 23.1105 14.3277 23.1111 11.9998C23.1111 5.86089 18.1389 0.888672 12 0.888672Z" fill="#6C6F93"/>
</svg>
