<svg width="24" height="20" viewBox="0 0 24 20" fill="none" xmlns="http://www.w3.org/2000/svg">
<path d="M23.2911 2.9507C22.4428 3.32592 21.5433 3.57234 20.6222 3.68182C21.5931 3.10119 22.3197 2.18739 22.6667 1.1107C21.7556 1.65293 20.7567 2.03293 19.7156 2.23848C19.0162 1.49024 18.0893 0.994001 17.0788 0.826911C16.0684 0.659821 15.0311 0.831251 14.1281 1.31454C13.2251 1.79783 12.5071 2.56591 12.0857 3.49936C11.6643 4.4328 11.5631 5.4793 11.7978 6.4763C9.95007 6.3837 8.14257 5.9035 6.49247 5.067C4.84247 4.2305 3.38679 3.05631 2.21998 1.6207C1.80697 2.33009 1.58993 3.13651 1.59109 3.95737C1.59109 5.5685 2.41109 6.9918 3.65776 7.8251C2.91999 7.8019 2.19846 7.6027 1.55331 7.244V7.3018C1.55353 8.3748 1.92483 9.4147 2.60425 10.2452C3.28367 11.0757 4.2294 11.6457 5.28109 11.8585C4.59622 12.0441 3.8781 12.0714 3.18109 11.9385C3.47761 12.8621 4.05554 13.6698 4.83397 14.2486C5.6124 14.8274 6.55237 15.1483 7.52217 15.1663C6.55827 15.9233 5.45462 16.4829 4.27429 16.8131C3.09396 17.1433 1.86012 17.2377 0.643311 17.0907C2.76742 18.4567 5.24008 19.1819 7.76557 19.1796C16.3133 19.1796 20.9878 12.0985 20.9878 5.9574C20.9878 5.7574 20.9822 5.5551 20.9733 5.3574C21.8832 4.6998 22.6684 3.88517 23.2922 2.95182L23.2911 2.9507Z" fill="#6C6F93"/>
</svg>
